<?xml version="1.0" encoding="UTF-8" standalone="no"?>

<svg
   width="552.48059"
   height="226.39195"
   version="1.1"
   viewBox="0 0 146.18149 59.900823"
   id="svg92000"
   sodipodi:docname="ergo-logo-dark.svg"
   inkscape:version="1.1 (c68e22c387, 2021-05-23)"
   xmlns:inkscape="http://www.inkscape.org/namespaces/inkscape"
   xmlns:sodipodi="http://sodipodi.sourceforge.net/DTD/sodipodi-0.dtd"
   xmlns="http://www.w3.org/2000/svg"
   xmlns:svg="http://www.w3.org/2000/svg">
  <defs
     id="defs92004" />
  <sodipodi:namedview
     id="namedview92002"
     pagecolor="#ffffff"
     bordercolor="#666666"
     borderopacity="1.0"
     inkscape:pageshadow="2"
     inkscape:pageopacity="0.0"
     inkscape:pagecheckerboard="0"
     showgrid="false"
     lock-margins="true"
     fit-margin-top="2"
     fit-margin-left="2"
     fit-margin-right="2"
     fit-margin-bottom="2"
     inkscape:zoom="1.1994921"
     inkscape:cx="290.12279"
     inkscape:cy="242.18584"
     inkscape:window-width="1920"
     inkscape:window-height="1017"
     inkscape:window-x="-8"
     inkscape:window-y="-8"
     inkscape:window-maximized="1"
     inkscape:current-layer="svg92000" />
  <g
     id="g79168"
     transform="matrix(3.0168955,0,0,3.0168955,-99.411669,-462.64226)">
    <g
       aria-label="#ERGO"
       id="text138441-8"
       style="font-size:16.2623px;line-height:1.25;font-family:banquise;-inkscape-font-specification:banquise;stroke-width:0.406558">
      <path
         d="m 34.330461,165.07201 h 1.902689 l 2.000263,-11.35109 h -1.902689 l -0.552918,3.15489 h -2.032788 v 1.78885 h 1.707542 l -0.243935,1.46361 h -2.081574 v 1.78885 h 1.756328 z m 3.154886,0 h 1.902689 l 0.552919,-3.15489 h 2.032787 v -1.78885 h -1.707541 l 0.243934,-1.46361 h 2.081575 v -1.78885 h -1.756329 l 0.552918,-3.15489 H 39.48561 Z"
         style="letter-spacing:0.605896px;fill:#5f901d;fill-opacity:1"
         id="path93221" />
      <path
         d="m 51.897912,165.07201 v -2.00027 h -4.813641 v -2.74833 h 4.651018 v -2.00026 h -4.651018 v -2.60197 h 4.813641 v -2.00026 h -7.252986 v 11.35109 z"
         style="letter-spacing:-0.743479px;fill:#161616;fill-opacity:1"
         id="path93223" />
      <path
         d="m 56.000574,160.86007 h 1.122099 l 1.902689,4.21194 h 2.667017 l -2.227935,-4.53719 c 1.268459,-0.35777 2.000263,-1.60996 2.000263,-3.20367 0,-2.19541 -1.252197,-3.61023 -3.480132,-3.61023 h -4.390822 v 11.35109 h 2.406821 z m 0,-1.88643 v -3.28498 h 1.398558 c 1.138361,0 1.528656,0.40656 1.528656,1.39856 v 0.48787 c 0,0.992 -0.390295,1.39855 -1.528656,1.39855 z"
         style="letter-spacing:0.0238125px;fill:#161616;fill-opacity:1"
         id="path93225" />
      <path
         d="m 68.822792,165.07201 h 2.179148 v -6.06584 h -4.114362 v 1.7238 h 1.935214 v 0.82938 c 0,1.00826 -0.552918,1.74007 -1.642492,1.74007 -1.41482,0 -1.886427,-1.20341 -1.886427,-3.04105 v -1.85391 c 0,-1.82137 0.455344,-2.91095 1.691279,-2.91095 1.122099,0 1.496132,0.89443 1.740066,1.8539 l 2.276722,-0.55291 c -0.455344,-1.95148 -1.62623,-3.26873 -3.968001,-3.26873 -2.943476,0 -4.325772,2.1141 -4.325772,5.96827 0,3.61023 1.20341,5.77311 3.431346,5.77311 1.398557,0 2.162885,-0.8619 2.536918,-1.80511 h 0.146361 z"
         style="letter-spacing:0.015875px;fill:#161616;fill-opacity:1"
         id="path93227" />
      <path
         d="m 76.790906,165.26715 c 3.041051,0 4.439608,-2.16288 4.439608,-5.87069 0,-3.7078 -1.398557,-5.87069 -4.439608,-5.87069 -3.04105,0 -4.439608,2.16289 -4.439608,5.87069 0,3.70781 1.398558,5.87069 4.439608,5.87069 z m 0,-1.96773 c -1.382295,0 -1.83764,-1.08958 -1.83764,-2.91096 v -1.984 c 0,-1.82137 0.455345,-2.91095 1.83764,-2.91095 1.382296,0 1.83764,1.08958 1.83764,2.91095 v 1.96774 c 0,1.83764 -0.455344,2.92722 -1.83764,2.92722 z"
         style="fill:#161616;fill-opacity:1"
         id="path93229" />
    </g>
    <g
       aria-label="irc chat"
       id="text138441-0-4"
       style="font-size:7.12909px;line-height:1.25;font-family:banquise;-inkscape-font-specification:banquise;fill:#4a7411;stroke-width:0.178227">
      <path
         d="m 42.20348,168.40346 c 0.242389,0 0.349325,-0.12833 0.349325,-0.32081 v -0.0927 c 0,-0.19249 -0.106936,-0.32081 -0.349325,-0.32081 -0.242389,0 -0.349326,0.12832 -0.349326,0.32081 v 0.0927 c 0,0.19248 0.106937,0.32081 0.349326,0.32081 z m -0.285164,4.54123 h 0.570327 v -3.67861 h -0.570327 z"
         style="font-family:'IBM Plex Sans';-inkscape-font-specification:'IBM Plex Sans';fill:#4a7411;fill-opacity:1"
         id="path93232" />
      <path
         d="m 44.270902,172.94469 v -2.49518 c 0,-0.34933 0.370713,-0.61311 0.983815,-0.61311 h 0.335067 v -0.57032 h -0.221002 c -0.598843,0 -0.933911,0.32793 -1.062234,0.67726 h -0.03565 v -0.67726 h -0.570327 v 3.67861 z"
         style="font-family:'IBM Plex Sans';-inkscape-font-specification:'IBM Plex Sans';fill:#4a7411;fill-opacity:1"
         id="path93234" />
      <path
         d="m 47.650074,173.03024 c 0.698651,0 1.1763,-0.3422 1.41156,-0.86975 l -0.413488,-0.27804 c -0.199614,0.42062 -0.534681,0.64162 -0.998072,0.64162 -0.677264,0 -1.026589,-0.46339 -1.026589,-1.10501 v -0.62736 c 0,-0.64162 0.349325,-1.10501 1.026589,-1.10501 0.449132,0 0.762812,0.221 0.898265,0.59885 l 0.477649,-0.24239 c -0.213873,-0.50617 -0.648747,-0.86262 -1.375914,-0.86262 -1.033718,0 -1.639691,0.74855 -1.639691,1.92485 0,1.1763 0.605973,1.92486 1.639691,1.92486 z"
         style="font-family:'IBM Plex Sans';-inkscape-font-specification:'IBM Plex Sans';fill:#4a7411;fill-opacity:1"
         id="path93236" />
      <path
         d="m 52.918446,173.03024 c 0.698651,0 1.1763,-0.3422 1.41156,-0.86975 l -0.413487,-0.27804 c -0.199615,0.42062 -0.534682,0.64162 -0.998073,0.64162 -0.677263,0 -1.026589,-0.46339 -1.026589,-1.10501 v -0.62736 c 0,-0.64162 0.349326,-1.10501 1.026589,-1.10501 0.449133,0 0.762813,0.221 0.898266,0.59885 l 0.477649,-0.24239 c -0.213873,-0.50617 -0.648748,-0.86262 -1.375915,-0.86262 -1.033718,0 -1.63969,0.74855 -1.63969,1.92485 0,1.1763 0.605972,1.92486 1.63969,1.92486 z"
         style="font-family:'IBM Plex Sans';-inkscape-font-specification:'IBM Plex Sans';fill:#4a7411;fill-opacity:1"
         id="path93238" />
      <path
         d="m 55.135581,172.94469 h 0.570328 v -2.55222 c 0,-0.47052 0.442003,-0.69865 0.898265,-0.69865 0.54894,0 0.834103,0.33507 0.834103,0.99095 v 2.25992 h 0.570328 v -2.35973 c 0,-0.89114 -0.477649,-1.40443 -1.233333,-1.40443 -0.54894,0 -0.86262,0.2709 -1.040847,0.68439 h -0.02852 v -2.19576 h -0.570328 z"
         style="font-family:'IBM Plex Sans';-inkscape-font-specification:'IBM Plex Sans';fill:#4a7411;fill-opacity:1"
         id="path93240" />
      <path
         d="m 62.179115,172.94469 v -0.49904 h -0.420617 v -2.02466 c 0,-0.77707 -0.527552,-1.24046 -1.41156,-1.24046 -0.663005,0 -1.105008,0.32794 -1.304623,0.72004 l 0.342196,0.3208 c 0.199615,-0.33506 0.491908,-0.54894 0.933911,-0.54894 0.584585,0 0.869749,0.28517 0.869749,0.80559 v 0.36359 h -0.727167 c -1.069364,0 -1.5684,0.38497 -1.5684,1.07649 0,0.68439 0.456262,1.11214 1.233333,1.11214 0.513294,0 0.905394,-0.23526 1.062234,-0.6844 h 0.03565 c 0.04277,0.3422 0.213872,0.59885 0.634489,0.59885 z m -1.9605,-0.39923 c -0.442004,0 -0.727167,-0.20675 -0.727167,-0.57033 v -0.14971 c 0,-0.35645 0.292292,-0.55607 0.94104,-0.55607 h 0.755683 v 0.60597 c 0,0.37785 -0.406358,0.67014 -0.969556,0.67014 z"
         style="font-family:'IBM Plex Sans';-inkscape-font-specification:'IBM Plex Sans';fill:#4a7411;fill-opacity:1"
         id="path93242" />
      <path
         d="m 64.517445,172.94469 v -0.49904 h -0.748554 v -2.68054 h 0.805587 v -0.49903 h -0.805587 v -1.01946 h -0.513295 v 0.68439 c 0,0.24952 -0.07842,0.33507 -0.320809,0.33507 h -0.342196 v 0.49903 h 0.605972 v 2.5736 c 0,0.35646 0.213873,0.60598 0.605973,0.60598 z"
         style="font-family:'IBM Plex Sans';-inkscape-font-specification:'IBM Plex Sans';fill:#4a7411;fill-opacity:1"
         id="path93244" />
    </g>
  </g>
</svg>
