<?xml version="1.0" encoding="UTF-8"?>
<!-- Created with Inkscape (http://www.inkscape.org/) -->
<svg width="441.02" height="223.49" version="1.1" viewBox="0 0 116.69 59.133" xmlns="http://www.w3.org/2000/svg"><g transform="translate(-49.819 -83.236)"><g transform="translate(36.416 50.756)"><g fill="#6d923d" stroke-width=".39865" aria-label="irc server"><g transform="translate(-33.555 2.1418)"><g transform="matrix(1.6793 0 0 1.6793 -118.85 -33.958)" fill="none" stroke="#0b0d08" stroke-linecap="round" stroke-linejoin="round"><g stroke-width="3.7042"><path d="m130.1 61.583s-0.70902-1.6206-0.0506-11.142"/><path d="m130.1 50.141s2.7449-0.70056 3.9566-0.10445c1.082 0.53234 1.7725 1.3927 1.9498 2.2537 0.1773 1.1395-1.7219 3.8236-6.1532 3.8743"/><path d="m139.16 62.078s-2.5784-6.3027-8.5587-5.9625"/></g><path d="m150.74 49.93c-3.1652-0.86867-6.8631 2.8347-7.3375 8.6652-0.3962 4.8694 6.5079 3.5444 7.4293-1.3035 0 0 0.39831 3.6542 1.6313 5.2649" stroke-width="3.5905"/><path d="m158.8 50.574c2.173-1.2398 5.2307-1.1867 6.5708 1.3638 1.3401 2.5505 0.80405 6.2699-0.87106 7.8285s-4.8578 2.1608-6.7674-0.6022c-1.9096-2.763 0.16464-7.4832 1.2061-8.1119" stroke-width="3.5634"/></g><path d="m88.015 34.958c-1.323-1.323-6.6503-1.2088-12.148-0.24055-5.5482 0.97719-10.024 3.4862-10.188 4.9252-0.18402 1.6134 6.0987 8.4252 13.796 8.786-9.261 0.96219-11.666 1.8041-18.763 5.1717-7.0961 3.3676-10.343 7.938-10.103 12.388 0.24056 4.4501 5.1718 12.027 20.206 10.464 15.034-1.5636 20.807-7.5772 20.807-7.5772" fill="none" stroke="#0b0d08" stroke-linecap="round" stroke-linejoin="round" stroke-width="6.2204"/><path d="m94.26 80.077v8.6587h1.4511v-8.6587zm0.01595-1.786h1.4511v-1.4989h-1.4511z" color="#000000" style="-inkscape-stroke:none"/><path d="m99.57 80.077h-1.196v8.6587h1.4511v-5.5652c0.55811-1.483 1.483-1.9932 2.1846-1.9932 0.36676 0 0.54217 0.03189 0.84514 0.14351l0.27108-1.2757c-0.27108-0.14351-0.54216-0.19135-0.92487-0.19135-0.9727 0-1.8338 0.70162-2.4557 1.8019h-0.04784z" color="#000000" style="-inkscape-stroke:none"/><path d="m107.97 88.943c1.0365 0 2.0252-0.39865 2.7906-1.1003l-0.62189-0.97271c-0.55811 0.49433-1.2278 0.86108-2.0411 0.86108-1.5946 0-2.6789-1.3235-2.6789-3.3168s1.1481-3.3487 2.7108-3.3487c0.70163 0 1.2278 0.31892 1.7381 0.78135l0.74946-0.97271c-0.62189-0.55811-1.3873-1.0205-2.5354-1.0205-2.2165 0-4.1779 1.6743-4.1779 4.5606 0 2.8703 1.77 4.5287 4.0662 4.5287z" color="#000000" style="-inkscape-stroke:none"/><path d="m118.51 88.943c2.0411 0 3.1573-1.1641 3.1573-2.5673 0-1.6265-1.3873-2.1687-2.647-2.6311-0.97271-0.3827-1.9135-0.66973-1.9135-1.4989 0-0.68568 0.49432-1.2438 1.5786-1.2438 0.78136 0 1.3714 0.31892 1.9932 0.76541l0.70163-0.94081c-0.68568-0.52622-1.6106-0.97271-2.6949-0.97271-1.8816 0-2.9819 1.1003-2.9819 2.4557 0 1.4511 1.3714 2.073 2.5832 2.5035 0.95676 0.3827 1.9773 0.76541 1.9773 1.6424 0 0.74946-0.55811 1.3554-1.7062 1.3554-1.0365 0-1.8178-0.39865-2.5673-1.0205l-0.71757 0.95676c0.82919 0.68568 2.0092 1.196 3.237 1.196z" color="#000000" style="-inkscape-stroke:none"/><path d="m127.2 88.943c1.2119 0 2.1049-0.39865 2.8703-0.89298l-0.52622-0.95676c-0.63784 0.43054-1.3235 0.68568-2.1686 0.68568-1.6584 0-2.7587-1.1641-2.8703-3.0297h5.8362c0.0478-0.2073 0.0638-0.51027 0.0638-0.82919 0-2.4716-1.2438-4.0662-3.4443-4.0662-2.0092 0-3.9068 1.7541-3.9068 4.5606 0 2.8703 1.8497 4.5287 4.146 4.5287zm1.9295-5.2303h-4.6403c0.17541-1.7062 1.2597-2.6949 2.4876-2.6949 1.3554 0 2.1527 0.89298 2.1527 2.6949z" color="#000000" style="-inkscape-stroke:none"/><path d="m133.74 80.077h-1.196v8.6587h1.4511v-5.5652c0.55811-1.483 1.483-1.9932 2.1846-1.9932 0.36676 0 0.54217 0.03189 0.84514 0.14351l0.27108-1.2757c-0.27108-0.14351-0.54216-0.19135-0.92486-0.19135-0.97271 0-1.8338 0.70162-2.4557 1.8019h-0.0478z" color="#000000" style="-inkscape-stroke:none"/><path d="m139.45 80.077h-1.5149l3.1254 8.6587h1.6903l3.0776-8.6587h-1.4351l-1.6424 4.9273c-0.25513 0.84514-0.54216 1.7381-0.7973 2.5514h-0.0638c-0.27108-0.81325-0.54217-1.7062-0.81325-2.5514z" color="#000000" style="-inkscape-stroke:none"/><path d="m151 88.943c1.2119 0 2.1049-0.39865 2.8703-0.89298l-0.52621-0.95676c-0.63784 0.43054-1.3235 0.68568-2.1687 0.68568-1.6584 0-2.7587-1.1641-2.8703-3.0297h5.8362c0.0478-0.2073 0.0638-0.51027 0.0638-0.82919 0-2.4716-1.2438-4.0662-3.4443-4.0662-2.0092 0-3.9068 1.7541-3.9068 4.5606 0 2.8703 1.8497 4.5287 4.146 4.5287zm1.9295-5.2303h-4.6403c0.17541-1.7062 1.2597-2.6949 2.4876-2.6949 1.3554 0 2.1527 0.89298 2.1527 2.6949z" color="#000000" style="-inkscape-stroke:none"/><path d="m157.53 80.077h-1.196v8.6587h1.4511v-5.5652c0.55811-1.483 1.483-1.9932 2.1846-1.9932 0.36676 0 0.54217 0.03189 0.84514 0.14351l0.27108-1.2757c-0.27108-0.14351-0.54216-0.19135-0.92487-0.19135-0.9727 0-1.8338 0.70162-2.4557 1.8019h-0.0478z" color="#000000" style="-inkscape-stroke:none"/></g></g></g></g></svg>
