<?xml version="1.0" encoding="UTF-8"?>
<svg width="552.48" height="226.39" version="1.1" viewBox="0 0 146.18 59.901" xmlns="http://www.w3.org/2000/svg"><g transform="matrix(3.0169 0 0 3.0169 -99.412 -462.64)"><g stroke-width=".40656" aria-label="#ERGO"><path d="m34.33 165.07h1.9027l2.0003-11.351h-1.9027l-0.55292 3.1549h-2.0328v1.7888h1.7075l-0.24394 1.4636h-2.0816v1.7888h1.7563zm3.1549 0h1.9027l0.55292-3.1549h2.0328v-1.7888h-1.7075l0.24393-1.4636h2.0816v-1.7888h-1.7563l0.55292-3.1549h-1.9027z" fill="#5f901d"/><g fill="#161616"><path d="m51.898 165.07v-2.0003h-4.8136v-2.7483h4.651v-2.0003h-4.651v-2.602h4.8136v-2.0003h-7.253v11.351z"/><path d="m56.001 160.86h1.1221l1.9027 4.2119h2.667l-2.2279-4.5372c1.2685-0.35777 2.0003-1.61 2.0003-3.2037 0-2.1954-1.2522-3.6102-3.4801-3.6102h-4.3908v11.351h2.4068zm0-1.8864v-3.285h1.3986c1.1384 0 1.5287 0.40656 1.5287 1.3986v0.48787c0 0.992-0.3903 1.3986-1.5287 1.3986z"/><path d="m68.823 165.07h2.1791v-6.0658h-4.1144v1.7238h1.9352v0.82938c0 1.0083-0.55292 1.7401-1.6425 1.7401-1.4148 0-1.8864-1.2034-1.8864-3.041v-1.8539c0-1.8214 0.45534-2.911 1.6913-2.911 1.1221 0 1.4961 0.89443 1.7401 1.8539l2.2767-0.55291c-0.45534-1.9515-1.6262-3.2687-3.968-3.2687-2.9435 0-4.3258 2.1141-4.3258 5.9683 0 3.6102 1.2034 5.7731 3.4313 5.7731 1.3986 0 2.1629-0.8619 2.5369-1.8051h0.14636z"/><path d="m76.791 165.27c3.0411 0 4.4396-2.1629 4.4396-5.8707 0-3.7078-1.3986-5.8707-4.4396-5.8707-3.041 0-4.4396 2.1629-4.4396 5.8707 0 3.7078 1.3986 5.8707 4.4396 5.8707zm0-1.9677c-1.3823 0-1.8376-1.0896-1.8376-2.911v-1.984c0-1.8214 0.45534-2.911 1.8376-2.911 1.3823 0 1.8376 1.0896 1.8376 2.911v1.9677c0 1.8376-0.45534 2.9272-1.8376 2.9272z"/></g></g><g fill="#4a7411" stroke-width=".17823" aria-label="irc network"><path d="m42.203 168.4c0.24239 0 0.34932-0.12833 0.34932-0.32081v-0.0927c0-0.19249-0.10694-0.32081-0.34932-0.32081s-0.34933 0.12832-0.34933 0.32081v0.0927c0 0.19248 0.10694 0.32081 0.34933 0.32081zm-0.28516 4.5412h0.57033v-3.6786h-0.57033z"/><path d="m44.271 172.94v-2.4952c0-0.34933 0.37071-0.61311 0.98382-0.61311h0.33507v-0.57032h-0.221c-0.59884 0-0.93391 0.32793-1.0622 0.67726h-0.03565v-0.67726h-0.57033v3.6786z"/><path d="m47.65 173.03c0.69865 0 1.1763-0.3422 1.4116-0.86975l-0.41349-0.27804c-0.19961 0.42062-0.53468 0.64162-0.99807 0.64162-0.67726 0-1.0266-0.46339-1.0266-1.105v-0.62736c0-0.64162 0.34932-1.105 1.0266-1.105 0.44913 0 0.76281 0.221 0.89826 0.59885l0.47765-0.24239c-0.21387-0.50617-0.64875-0.86262-1.3759-0.86262-1.0337 0-1.6397 0.74855-1.6397 1.9248s0.60597 1.9249 1.6397 1.9249z"/><path d="m52.12 172.94v-2.5522c0-0.47052 0.442-0.69865 0.89827-0.69865 0.54894 0 0.8341 0.33507 0.8341 0.99095v2.2599h0.57033v-2.3597c0-0.89114-0.47765-1.4044-1.2333-1.4044-0.54894 0-0.86262 0.2709-1.0408 0.68439h-0.02852v-0.59884h-0.57033v3.6786z"/><path d="m56.982 173.03c0.69152 0 1.2191-0.3422 1.4543-0.84124l-0.40636-0.29229c-0.19248 0.40636-0.54894 0.63449-1.0123 0.63449-0.68439 0-1.0908-0.47765-1.0908-1.1121v-0.1711h2.6449v-0.2709c0-1.0408-0.60597-1.7965-1.5898-1.7965-0.99807 0-1.6539 0.75568-1.6539 1.9248s0.65588 1.9249 1.6539 1.9249zm0-3.3721c0.58458 0 0.97668 0.43487 0.97668 1.0836v0.0784h-2.0318v-0.0499c0-0.64161 0.43487-1.1121 1.0551-1.1121z"/><path d="m61.038 172.94v-0.49904h-0.74856v-2.6805h0.80559v-0.49903h-0.80559v-1.0195h-0.51329v0.68439c0 0.24952-0.07842 0.33507-0.32081 0.33507h-0.3422v0.49903h0.60597v2.5736c0 0.35646 0.21387 0.60598 0.60597 0.60598z"/><path d="m62.614 172.94h0.69152l0.5133-1.768 0.31368-1.1193h0.01426l0.32081 1.1193 0.5133 1.768h0.70578l0.97669-3.6786h-0.53468l-0.39923 1.5898-0.37784 1.6112h-0.01426l-0.45626-1.6112-0.47765-1.5898h-0.50616l-0.46339 1.5898-0.44913 1.6112h-0.01426l-0.3921-1.6112-0.3921-1.5898h-0.55607z"/><path d="m68.845 173.03c0.98382 0 1.6611-0.75569 1.6611-1.9249s-0.67726-1.9248-1.6611-1.9248c-0.98381 0-1.6611 0.75568-1.6611 1.9248s0.67726 1.9249 1.6611 1.9249zm0-0.50617c-0.6131 0-1.048-0.37784-1.048-1.1549v-0.52755c0-0.77708 0.43488-1.1549 1.048-1.1549 0.6131 0 1.048 0.37784 1.048 1.1549v0.52755c0 0.77707-0.43488 1.1549-1.048 1.1549z"/><path d="m72.017 172.94v-2.4952c0-0.34933 0.37071-0.61311 0.98381-0.61311h0.33507v-0.57032h-0.221c-0.59884 0-0.93391 0.32793-1.0622 0.67726h-0.03565v-0.67726h-0.57033v3.6786z"/><path d="m74.063 172.94h0.57033v-1.3118l0.54894-0.56319 1.2191 1.875h0.69152l-1.4971-2.2243 1.3617-1.4543h-0.69152l-1.0408 1.1193-0.5632 0.62736h-0.02852v-3.3435h-0.57033z"/></g></g></svg>
